<svg xmlns="http://www.w3.org/2000/svg" id="Layer_1" data-name="Layer 1" viewBox="0 0 229.45 49.88"><defs/><defs><style>.cls-1{fill:#fff}.cls-2{fill:#f15a29}.cls-3{fill:#4e2f1e}.cls-7{fill:none;stroke-linecap:round;stroke-linejoin:round;stroke-width:2px;stroke:#4e2f1e}</style></defs><path d="M0 0h229.45v49.88H0z" class="cls-1"/><path d="M191.2 58.32a4.86 4.86 0 012.69 3.22l1 3a5.51 5.51 0 001.75 2.59 4.87 4.87 0 01-3.64 1.61c-2 0-2.69-1.08-3.43-3.22l-1.26-3.67a2.8 2.8 0 00-3-2.17h-1.41v8.74a18.5 18.5 0 01-5.56 0v-23.7l.25-.24c3-.07 5.73-.14 8.39-.14 4.86 0 8.5 2.31 8.5 7.59a6.86 6.86 0 01-4.28 6.39zm-7.31-2.94c1.08 0 2.13-.07 2.59-.07 2.66 0 3.29-1.61 3.29-3.39s-.63-3.36-3.29-3.36h-2.59zM211.34 68.71a4.67 4.67 0 01-3.78-1.85 7.17 7.17 0 01-5.1 2.1 5.15 5.15 0 01-5.31-5.32c0-4.19 3.32-6 6.92-6 .63 0 1.57 0 2.48.07V57c0-1.47-.7-2.2-2.27-2.2a19.25 19.25 0 00-5.14 1.12 7.43 7.43 0 01-1.33-3.81 24.42 24.42 0 018-1.54c3 0 6.22 1.54 6.22 6v7.1a2.55 2.55 0 001 2.27 5.69 5.69 0 01-1.69 2.77zm-4.79-4.79v-2.8c-.7 0-1.4-.07-1.89-.07a2 2 0 00-2.2 2.24 1.55 1.55 0 001.61 1.64 4 4 0 002.48-1.01zM220 68.81c-4.06-.63-6.19-4.06-6.19-9.05 0-6.78 4-9.3 7.83-9.3s6.82 2.34 6.82 5.8a2.45 2.45 0 01-2.69 2.66 10.28 10.28 0 01-2.2-.21c0-2.69-.21-4.19-2-4.19-1.61 0-2.17 1.57-2.17 5.25s1 4.93 3 4.93a7.16 7.16 0 003.85-1.47 5.43 5.43 0 012.06 3 9.34 9.34 0 01-5.56 2.62l-.28.66c2.2.11 3.53 1.43 3.53 3.11 0 2.27-2 3.88-4.9 3.88a5.77 5.77 0 01-3-.84 3.91 3.91 0 01.91-2.34 3.12 3.12 0 001.61.45c.8 0 1.26-.38 1.26-1a1 1 0 00-1.12-1 2.09 2.09 0 00-.7.14 1.9 1.9 0 01-.8-.77 18 18 0 01.74-2.33zM243.78 68.71a4.67 4.67 0 01-3.78-1.86 7.17 7.17 0 01-5.1 2.1 5.15 5.15 0 01-5.31-5.32c0-4.19 3.32-6 6.92-6 .63 0 1.57 0 2.48.07V57c0-1.47-.7-2.2-2.27-2.2a19.25 19.25 0 00-5.14 1.12 7.43 7.43 0 01-1.33-3.81 24.42 24.42 0 018-1.54c3 0 6.22 1.54 6.22 6v7.1a2.55 2.55 0 001 2.27 5.69 5.69 0 01-1.69 2.77zm-8-21.09a2.64 2.64 0 00-1-.32c-.42 0-.8.28-1.22.87l-.31.42a2.85 2.85 0 01-2.54-1.59l.28-.66a4.46 4.46 0 014.01-3.12 4.51 4.51 0 012.2.63l1.54.77a2.14 2.14 0 001 .32c.42 0 .8-.24 1.22-.84l.32-.42a2.85 2.85 0 012.52 1.64l-.28.66a4.53 4.53 0 01-4.06 3.08 4.78 4.78 0 01-2.2-.63zm3.22 16.3v-2.8c-.7 0-1.4-.07-1.89-.07a2 2 0 00-2.2 2.24 1.55 1.55 0 001.61 1.64 4 4 0 002.48-1.01zM259.93 66.89a7.68 7.68 0 01-5.56 2.11 7.57 7.57 0 01-5.56-2.06c-1.85-1.85-2.52-4.13-2.52-7.2s.66-5.32 2.52-7.17a7.57 7.57 0 015.56-2.06 7.68 7.68 0 015.56 2.06c1.85 1.85 2.52 4.13 2.52 7.17s-.66 5.26-2.52 7.15zm-5.56-2c2.13 0 2.45-2.27 2.45-5.17s-.32-5.14-2.45-5.14-2.48 2.27-2.48 5.14.32 5.14 2.48 5.14z" class="cls-2" transform="translate(-112.61 -30.25)"/><path d="M275 68.64a16.94 16.94 0 01-2.87-.21V44.75l.24-.21h15a10.72 10.72 0 01.21 2.13c0 1.85-.94 2.62-3 2.62h-6.89v4.93h7.48a10.67 10.67 0 01.28 2.31 10.37 10.37 0 01-.28 2.27h-7.48v9.62a15.42 15.42 0 01-2.69.22zM301.15 68.71a4.67 4.67 0 01-3.78-1.85 7.17 7.17 0 01-5.1 2.1 5.15 5.15 0 01-5.27-5.32c0-4.19 3.32-6 6.92-6 .63 0 1.57 0 2.48.07V57c0-1.47-.7-2.2-2.27-2.2a19.25 19.25 0 00-5.14 1.12 7.43 7.43 0 01-1.33-3.81 24.43 24.43 0 018-1.54c3 0 6.22 1.54 6.22 6v7.1a2.55 2.55 0 001 2.27 5.71 5.71 0 01-1.73 2.77zm-4.34-27.21a5.61 5.61 0 013.29 3.15l-6.47 4.86a3.5 3.5 0 01-2.24-2.1zm-.45 22.41v-2.8c-.7 0-1.4-.07-1.89-.07a2 2 0 00-2.2 2.24 1.55 1.55 0 001.61 1.64 4 4 0 002.48-1zM311.39 54.51c-1.61 0-2.17 1.57-2.17 5.25s1 4.93 3 4.93a7.16 7.16 0 003.85-1.47 5.43 5.43 0 012.06 3 9.69 9.69 0 01-6.74 2.78c-5 0-7.73-3.6-7.73-9.2 0-6.78 4-9.3 7.83-9.3s6.82 2.34 6.82 5.8a2.45 2.45 0 01-2.69 2.66 10.27 10.27 0 01-2.2-.21c.03-2.75-.21-4.24-2.03-4.24zM327.09 68.43a16.8 16.8 0 01-2.76.21 17 17 0 01-2.73-.21V56.85c0-1.16-.42-2-1.64-2h-.53a6.41 6.41 0 01-.21-1.85 7.65 7.65 0 01.21-2c1.08-.11 2.31-.17 3.08-.17h.77c2.31 0 3.81 1.61 3.81 4.16zM321 44a6.15 6.15 0 012.59-.56 5.91 5.91 0 012.59.56 5.1 5.1 0 010 4.06 6.48 6.48 0 01-2.59.53A5.94 5.94 0 01321 48a5.26 5.26 0 01-.42-2 5.14 5.14 0 01.42-2zM338.1 64.44a7.88 7.88 0 01.42 2.59 4.56 4.56 0 01-.11 1.22 23.86 23.86 0 01-3.78.35c-3.15 0-4.34-1.54-4.34-4.86v-20.8l.21-.24h2.13c2.17 0 3 .84 3 3.29V62.8c0 1 .42 1.64 1.54 1.64z" class="cls-3" transform="translate(-112.61 -30.25)"/><path fill="#d1d3d4" d="M157.37 70.75a5.94 5.94 0 001.26-3.61 6.4 6.4 0 00-3.07-5.29 6.64 6.64 0 00-1.79-2.49 7.28 7.28 0 00-4.7-4.51 9 9 0 00-5.3-1.68 9.38 9.38 0 00-3.05.51 8.42 8.42 0 00-6.19 3 6.61 6.61 0 00-3.15 4.53 6.45 6.45 0 00-3.26 5.41 5.77 5.77 0 00.55 2.43v.2c0 3.72 3.6 6.74 8 6.74h.77a9.11 9.11 0 004.56 1.2 9.28 9.28 0 003.58-.71 9.54 9.54 0 001.77.17 9.11 9.11 0 004.58-1.2 7.45 7.45 0 005.44-4.7z" transform="translate(-112.61 -30.25)"/><path d="M130.17 57.76a13.67 13.67 0 014-4.14 3.22 3.22 0 10-4 4.14zM155.94 57.76a3.22 3.22 0 10-4-4.14 13.67 13.67 0 014 4.14zm-2.82-4.5a.88.88 0 11.88.88.88.88 0 01-.88-.87z" class="cls-3" transform="translate(-112.61 -30.25)"/><circle cx="21.46" cy="34.16" r=".89" class="cls-3"/><circle cx="24.79" cy="33.26" r=".89" class="cls-3"/><circle cx="38.24" cy="31.51" r=".89" class="cls-3"/><circle cx="36.11" cy="33.26" r=".89" class="cls-3"/><circle cx="39.43" cy="34.16" r=".89" class="cls-3"/><circle cx="22.66" cy="31.51" r=".89" class="cls-3"/><path d="M144.1 65.51v-1.26.72-4.39a1 1 0 10-2 0v4.62l.16.14.06-.32v.06c-.11.01 1.84.43 1.78.43z" class="cls-3" transform="translate(-112.61 -30.25)"/><path d="M169.31 52.11c-.31-3.14-1-5-2.23-6.16s-3-1.66-6-1.66a9.65 9.65 0 00-3.2.5 19.14 19.14 0 00-1.68-1.37 1 1 0 00-.43-.18 3.27 3.27 0 01-.28-.44 4 4 0 01-.65-1.59 6.41 6.41 0 00-.72.91 22.93 22.93 0 00-11.09-2.77 23.19 23.19 0 00-9.86 2.14 3.07 3.07 0 01-.46 1 1 1 0 00-1.23-.16 19.65 19.65 0 00-3.24 2.36 9.77 9.77 0 00-3-.45c-3 0-4.74.5-6 1.66s-1.93 3-2.23 6.16c-.51 5.2-.5 7.1 1.62 7.94a1.92 1.92 0 00.71.13 5 5 0 002.1-.61 12.77 12.77 0 00-.47 3v1.01A12.09 12.09 0 00123 70a12.79 12.79 0 004.15 4l.45.29C131.52 76.7 137 78 143.06 78s11.54-1.33 15.44-3.75l.58-.38a12.88 12.88 0 003.54-3.23q.33-.44.61-.89l.05-.08a12.19 12.19 0 001.85-6.58 12.77 12.77 0 00-.52-3.61 5.32 5.32 0 002.35.74 1.92 1.92 0 00.71-.13c2.15-.88 2.16-2.78 1.64-7.98zM123 62.66a10.7 10.7 0 011.77-5.52 1 1 0 00.17-.58v-.33-.28-.07-.1-.28-.34c.72-7.65 8.56-13.7 18.09-13.7 10 0 18.14 6.66 18.14 14.85v.33a1 1 0 00.17.58 10.71 10.71 0 011.78 5.93v.42A10.65 10.65 0 01162 67.9a11.8 11.8 0 01-3.73 4.1 11.12 11.12 0 001-4.59 8.4 8.4 0 00-3.42-7.19 11.71 11.71 0 00-4.91-6 15.69 15.69 0 00-4.94-2.09 8 8 0 00-2.47-.35h-.94a8 8 0 00-2.47.35 15.69 15.69 0 00-4.91 2.13 11.71 11.71 0 00-4.91 6 8.4 8.4 0 00-3.42 7.19 11.12 11.12 0 001 4.59 11.93 11.93 0 01-3.56-3.85A10.73 10.73 0 01123 63v-.34zm9.62 11.75c-2.17-1-3.72-3.77-3.72-7a6.36 6.36 0 012.79-5.68 1 1 0 00.45-.6 9.51 9.51 0 014.18-5.2c.23-.15.47-.3.71-.43a5.34 5.34 0 00-.06 1.89 1 1 0 001 .83h3.14a1 1 0 001-1v-1.45a1 1 0 00-2 0v.44h-1.15a2.6 2.6 0 01.56-1.38 2.65 2.65 0 011.18-.77 11 11 0 012-.27h.83a11 11 0 012 .27 2.65 2.65 0 011.18.77 2.61 2.61 0 01.57 1.38H146v-.44a1 1 0 00-2 0v1.44a1 1 0 001 1h3.14a1 1 0 001-.83 5.34 5.34 0 00-.06-1.89c.24.14.48.28.71.43a9.51 9.51 0 014.18 5.2 1 1 0 00.45.6 6.36 6.36 0 012.79 5.68c0 3.2-1.55 5.93-3.71 7a34.7 34.7 0 01-20.93 0z" class="cls-3" transform="translate(-112.61 -30.25)"/><path d="M131.1 45.22s14 1.44 24-.13c0 0 1.54-6.35-1.27-8.82-4.24-3.73-18.18-5-21.79-1.36-1.44 1.4-2.19 6.85-.94 10.31z" class="cls-2" transform="translate(-112.61 -30.25)"/><path d="M143.83 46.49c-6.83 0-12.71-.59-12.8-.6h-.42l-.14-.4a14.69 14.69 0 01-.57-6.22c.23-2.2.84-4 1.63-4.79 1.79-1.81 6-2.67 11.19-2.28 6 .44 9.87 2.16 11.52 3.61 3.08 2.71 1.55 9.21 1.48 9.49l-.11.43-.44.07a75.82 75.82 0 01-11.34.69zm-12.23-1.9c2.38.22 14.13 1.19 22.9-.09a17.64 17.64 0 00.31-2.93c0-1.58-.21-3.7-1.46-4.8-1.87-1.65-6.09-2.94-10.74-3.28s-8.63.37-10.13 1.89c-1.1 1.09-1.87 5.92-.89 9.21z" class="cls-3" transform="translate(-112.61 -30.25)"/><path fill="#fdbf57" d="M156 45.09s-4.14-2.21-14.69-2.5c-7.29-.2-13.14 1-15.23 2.77s12.85 2.15 15.33 2.14c5.25-.04 12.81-1.5 14.59-2.41z" transform="translate(-112.61 -30.25)"/><path d="M141.2 48.17c-1.4 0-5-.09-8.3-.33-6.64-.48-7.44-1.17-7.68-1.83a1 1 0 01.38-1.16c2.34-2 8.5-3.12 15.68-2.93a53.84 53.84 0 0111.45 1.38 17 17 0 013.54 1.2l1.1.59-1.1.59c-1.92 1-9.64 2.45-14.91 2.49zm-14.41-2.54a29 29 0 006.61.91c3.27.22 6.79.31 8 .3a54.92 54.92 0 008.52-.85c1.63-.28 3.09-.6 4.17-.91-.47-.15-1-.32-1.73-.49a52.77 52.77 0 00-11.07-1.32c-7.41-.21-12.49 1-14.5 2.35zm-.35.27z" class="cls-3" transform="translate(-112.61 -30.25)"/><path d="M140.56 73.25c-1.64-.33-2.64-2.39-2.21-5.24 1.14-.6 1.54-1.87 2.26-2.09l1.35-.37.77-.47c.53.12.8.19 1.33.35l1 .28c.66 0 .19.88 1 1.51-1.65 4.28-3.87 6.36-5.5 6.03z" class="cls-1" transform="translate(-112.61 -30.25)"/><path d="M138.11 67.34c-.85 2.47-.61 5.49 2.24 6.21h.1c2.9.57 5.07-3.21 6.07-6.93" class="cls-7" transform="translate(-112.61 -30.25)"/><path d="M141.26 70.67a13 13 0 01.83-4.53c.48-.76 2.42-.53 1.53.34s-1.56 1.52-2.36 4.19z" class="cls-3" transform="translate(-112.61 -30.25)"/><circle cx="17.36" cy="23.02" r=".88" class="cls-1"/><path d="M153.9 68s-1.74 3.39-4.66 0-7.08-2-7.08-2-2.28-1.28-5.08 2-4.66 0-4.66 0" class="cls-7" transform="translate(-112.61 -30.25)"/></svg>